<?xml version="1.0" encoding="UTF-8" standalone="no"?>
<!DOCTYPE svg PUBLIC "-//W3C//DTD SVG 1.1//EN" "http://www.w3.org/Graphics/SVG/1.1/DTD/svg11.dtd">
<svg width="100%" height="100%" viewBox="0 0 512 512" version="1.1" xmlns="http://www.w3.org/2000/svg" xmlns:xlink="http://www.w3.org/1999/xlink" xml:space="preserve" xmlns:serif="http://www.serif.com/" style="fill-rule:evenodd;clip-rule:evenodd;stroke-linejoin:round;stroke-miterlimit:2;">
    <g transform="matrix(2,0,0,2,0,0)">
        <g id="Livello-1" serif:id="Livello 1" transform="matrix(1,0,0,1,-372,-372)">
            <g transform="matrix(0.536613,0,0,0.538111,497.912,404.32)">
                <path d="M0,-12.609C1.507,-11.068 2.788,-9.424 3.947,-7.88C4.741,-6.824 5.301,-5.681 5.616,-4.485C5.679,-4.24 5.781,-3.969 5.918,-3.682C6.672,-2.111 7.152,-0.537 7.618,0.985L7.868,1.794C7.975,2.131 8.046,2.486 8.103,2.841L8.249,3.67C8.378,4.403 8.507,5.137 8.616,5.873C8.638,6.031 8.668,6.091 8.668,6.091C8.707,6.094 8.811,6.183 8.915,6.273C10.009,7.18 10.637,8.433 10.733,9.902L10.744,10.048C10.758,10.2 10.769,10.351 10.774,10.503L10.794,10.969C10.816,11.439 10.835,11.911 10.829,12.381C10.813,13.256 10.887,14.125 11.057,15.039C11.432,17.069 11.586,18.763 11.542,20.377C11.531,20.728 11.553,21.127 11.611,21.672C11.644,21.963 11.66,22.245 11.66,22.519C14.482,22.658 17.282,22.869 20.06,23.157C17.91,15.833 15.763,8.524 13.61,1.193C14.191,1.158 14.603,1.133 15.039,1.105C15.22,1.655 15.381,2.129 15.529,2.608C16.95,7.156 18.349,11.71 19.799,16.25C20.553,18.619 22.846,19.788 25.149,19.064C27.297,18.387 28.462,16.214 27.76,13.947C25.347,6.138 22.906,-1.663 20.43,-9.453C19.72,-11.686 18.217,-13.282 15.935,-13.958C15.022,-14.228 14.03,-14.285 13.07,-14.315C11.306,-14.368 9.538,-14.33 7.678,-14.33C7.678,-15.004 7.728,-15.508 7.667,-15.997C7.511,-17.224 7.892,-17.957 9.049,-18.67C12.491,-20.787 13.958,-25.063 12.831,-28.941C11.69,-32.855 8.232,-35.527 4.153,-35.646C0.104,-35.766 -3.564,-33.241 -4.892,-29.424C-6.222,-25.605 -5.029,-21.21 -1.645,-18.986C-0.079,-17.957 0.336,-16.859 0.125,-15.224C0.095,-14.999 0.098,-14.769 0.076,-14.329C-0.675,-14.329 -1.404,-14.332 -2.134,-14.333C-1.868,-14.143 -1.598,-13.958 -1.338,-13.76C-0.935,-13.458 -0.459,-13.081 0,-12.609" style="fill:rgb(185,154,72);fill-rule:nonzero;"/>
            </g>
            <g transform="matrix(0.536613,0,0,0.538111,611.203,504.781)">
                <path d="M0,-17.667C-3.82,-18.996 -8.216,-17.805 -10.44,-14.421C-11.466,-12.854 -12.565,-12.44 -14.2,-12.65C-14.424,-12.68 -14.658,-12.677 -15.094,-12.699C-15.094,-14.725 -15.077,-16.656 -15.099,-18.586C-15.137,-21.865 -16.843,-24.399 -19.931,-25.391C-27.749,-27.901 -35.595,-30.334 -43.438,-32.761C-45.355,-33.353 -47.211,-32.558 -48.135,-30.909C-49.443,-28.566 -48.3,-25.881 -45.566,-25.013C-40.989,-23.56 -36.396,-22.15 -31.81,-20.716C-31.347,-20.57 -30.892,-20.392 -30.426,-20.228C-30.522,-19.613 -30.596,-19.134 -30.678,-18.602C-37.997,-20.753 -45.272,-22.89 -52.578,-25.037C-52.029,-19.726 -51.747,-14.338 -51.747,-8.884C-51.747,-3.423 -52.032,1.972 -52.581,7.286C-45.256,5.135 -37.948,2.988 -30.618,0.836C-30.582,1.417 -30.555,1.828 -30.53,2.263C-31.078,2.445 -31.556,2.606 -32.033,2.756C-36.579,4.176 -41.134,5.575 -45.675,7.023C-48.042,7.779 -49.21,10.071 -48.486,12.374C-47.812,14.521 -45.637,15.686 -43.369,14.985C-35.562,12.572 -27.76,10.131 -19.972,7.655C-17.737,6.945 -16.141,5.442 -15.464,3.159C-15.195,2.248 -15.137,1.255 -15.107,0.295C-15.055,-1.47 -15.094,-3.238 -15.094,-5.098C-14.422,-5.098 -13.917,-5.047 -13.426,-5.108C-12.2,-5.264 -11.466,-4.883 -10.755,-3.726C-8.635,-0.285 -4.36,1.185 -0.483,0.056C3.433,-1.084 6.102,-4.542 6.222,-8.625C6.34,-12.671 3.817,-16.338 0,-17.667" style="fill:rgb(185,154,72);fill-rule:nonzero;"/>
            </g>
            <g transform="matrix(0.536613,0,0,0.538111,396.417,497.92)">
                <path d="M0,7.634C0.226,7.663 0.458,7.659 0.896,7.683C0.896,9.709 0.878,11.64 0.9,13.569C0.938,16.849 2.644,19.381 5.733,20.374C13.55,22.885 21.395,25.318 29.24,27.742C31.156,28.337 33.012,27.54 33.936,25.891C35.246,23.55 34.099,20.864 31.366,19.997C26.788,18.544 22.197,17.133 17.612,15.699C17.147,15.555 16.693,15.376 16.228,15.21C16.323,14.595 16.397,14.118 16.478,13.585C23.799,15.736 31.074,17.874 38.38,20.02C37.831,14.711 37.547,9.322 37.547,3.867C37.547,-1.593 37.832,-6.988 38.381,-12.304C31.058,-10.151 23.748,-8.004 16.419,-5.852C16.382,-6.435 16.357,-6.845 16.329,-7.28C16.879,-7.461 17.354,-7.623 17.833,-7.773C22.381,-9.193 26.937,-10.592 31.475,-12.04C33.843,-12.795 35.013,-15.088 34.288,-17.391C33.613,-19.537 31.44,-20.703 29.172,-20.002C21.362,-17.588 13.562,-15.15 5.773,-12.671C3.538,-11.961 1.943,-10.46 1.266,-8.177C0.997,-7.265 0.939,-6.271 0.91,-5.312C0.856,-3.546 0.895,-1.779 0.895,0.082C0.22,0.082 -0.282,0.03 -0.772,0.091C-1.999,0.247 -2.732,-0.133 -3.444,-1.29C-5.563,-4.733 -9.838,-6.202 -13.715,-5.073C-17.631,-3.932 -20.302,-0.475 -20.422,3.607C-20.54,7.654 -18.017,11.322 -14.199,12.65C-10.38,13.98 -5.986,12.788 -3.762,9.403C-2.732,7.838 -1.634,7.422 0,7.634" style="fill:rgb(185,154,72);fill-rule:nonzero;"/>
            </g>
            <g transform="matrix(0.536613,0,0,0.538111,423.228,437.768)">
                <path d="M0,-19.59C1.835,-19.97 2.905,-19.486 3.912,-18.182C4.051,-18.001 4.216,-17.84 4.51,-17.513C3.078,-16.081 1.699,-14.728 0.351,-13.348C-1.942,-11.003 -2.527,-8.005 -1.045,-5.12C2.71,2.184 6.534,9.451 10.367,16.713C11.302,18.488 13.179,19.237 14.997,18.724C17.579,17.995 18.667,15.285 17.348,12.739C15.14,8.475 12.891,4.231 10.663,-0.025C10.436,-0.456 10.241,-0.903 10.029,-1.349C10.53,-1.717 10.92,-2.003 11.354,-2.322C15.012,4.38 18.649,11.041 22.297,17.728C29.107,9.34 36.772,1.677 45.161,-5.133C38.457,-8.793 31.767,-12.445 25.057,-16.108C25.443,-16.545 25.715,-16.854 26.004,-17.181C26.52,-16.92 26.97,-16.698 27.415,-16.464C31.636,-14.255 35.845,-12.022 40.078,-9.836C42.287,-8.696 44.735,-9.491 45.852,-11.632C46.891,-13.627 46.179,-15.987 44.08,-17.095C36.852,-20.911 29.611,-24.702 22.351,-28.458C20.269,-29.535 18.08,-29.601 15.987,-28.465C15.151,-28.012 14.409,-27.35 13.709,-26.692C12.423,-25.481 11.2,-24.205 9.884,-22.89C9.407,-23.365 9.089,-23.759 8.698,-24.061C7.721,-24.819 7.471,-25.606 7.785,-26.928C8.722,-30.859 6.738,-34.921 3.198,-36.864C-0.376,-38.827 -4.711,-38.271 -7.682,-35.468C-10.627,-32.691 -11.436,-28.313 -9.677,-24.676C-7.916,-21.033 -3.965,-18.769 0,-19.59" style="fill:rgb(185,154,72);fill-rule:nonzero;"/>
            </g>
            <g transform="matrix(0.536613,0,0,0.538111,555.223,432.757)">
                <path d="M0,-0.759C4.267,-2.969 8.509,-5.219 12.765,-7.447C13.193,-7.672 13.643,-7.868 14.087,-8.079C14.457,-7.577 14.742,-7.187 15.061,-6.753C8.361,-3.095 1.7,0.539 -4.988,4.19C3.4,11 11.062,18.665 17.871,27.054C21.532,20.35 25.185,13.659 28.849,6.949C29.282,7.336 29.595,7.606 29.921,7.897C29.661,8.412 29.438,8.863 29.205,9.308C26.995,13.527 24.763,17.738 22.577,21.971C21.436,24.18 22.232,26.628 24.371,27.743C26.367,28.784 28.728,28.072 29.836,25.973C33.651,18.745 37.443,11.502 41.197,4.244C42.272,2.162 42.341,-0.029 41.205,-2.121C40.75,-2.956 40.089,-3.699 39.431,-4.399C38.222,-5.685 36.944,-6.907 35.63,-8.223C36.105,-8.7 36.5,-9.019 36.801,-9.409C37.558,-10.386 38.345,-10.637 39.667,-10.322C43.599,-9.385 47.661,-11.37 49.605,-14.911C51.566,-18.484 51.012,-22.818 48.209,-25.79C45.429,-28.735 41.052,-29.543 37.413,-27.784C33.774,-26.024 31.506,-22.073 32.329,-18.107C32.71,-16.272 32.227,-15.203 30.919,-14.197C30.741,-14.057 30.579,-13.891 30.253,-13.598C28.821,-15.03 27.467,-16.409 26.087,-17.758C23.743,-20.049 20.743,-20.634 17.86,-19.152C10.555,-15.399 3.291,-11.573 -3.974,-7.74C-5.748,-6.805 -6.497,-4.931 -5.986,-3.111C-5.254,-0.529 -2.545,0.559 0,-0.759" style="fill:rgb(185,154,72);fill-rule:nonzero;"/>
            </g>
            <g transform="matrix(0.536613,0,0,0.538111,444.778,567.242)">
                <path d="M0,0.761C-4.266,2.971 -8.509,5.22 -12.764,7.449C-13.195,7.674 -13.643,7.87 -14.088,8.08C-14.456,7.579 -14.742,7.189 -15.061,6.755C-8.36,3.097 -1.699,-0.537 4.989,-4.188C-3.399,-10.998 -11.062,-18.662 -17.872,-27.052C-21.532,-20.348 -25.184,-13.657 -28.847,-6.947C-29.284,-7.333 -29.593,-7.604 -29.92,-7.894C-29.659,-8.411 -29.437,-8.861 -29.205,-9.304C-26.994,-13.525 -24.762,-17.736 -22.576,-21.969C-21.436,-24.178 -22.23,-26.626 -24.371,-27.741C-26.366,-28.782 -28.727,-28.07 -29.835,-25.971C-33.651,-18.743 -37.442,-11.5 -41.197,-4.242C-42.274,-2.159 -42.341,0.031 -41.205,2.123C-40.751,2.958 -40.09,3.701 -39.431,4.4C-38.221,5.686 -36.945,6.909 -35.629,8.225C-36.105,8.702 -36.498,9.022 -36.8,9.412C-37.558,10.389 -38.346,10.639 -39.667,10.324C-43.598,9.388 -47.66,11.372 -49.604,14.913C-51.566,18.486 -51.01,22.821 -48.208,25.792C-45.431,28.737 -41.053,29.543 -37.415,27.786C-33.773,26.025 -31.508,22.075 -32.329,18.109C-32.71,16.274 -32.226,15.205 -30.921,14.199C-30.74,14.059 -30.58,13.893 -30.253,13.6C-28.821,15.032 -27.469,16.411 -26.087,17.76C-23.743,20.051 -20.745,20.636 -17.86,19.154C-10.556,15.401 -3.289,11.575 3.974,7.742C5.748,6.807 6.498,4.933 5.986,3.113C5.256,0.531 2.546,-0.557 0,0.761" style="fill:rgb(185,154,72);fill-rule:nonzero;"/>
            </g>
            <g transform="matrix(0.536613,0,0,0.538111,521.494,400.897)">
                <path d="M0,28.48C1.796,29.55 3.88,29.127 5.391,27.298C6.872,25.509 8.342,23.713 9.809,21.915C11.216,20.189 12.623,18.464 14.032,16.741C14.035,16.741 14.035,16.74 14.035,16.738C14.293,16.428 14.586,16.148 14.863,15.855C14.937,15.915 15.008,15.977 15.08,16.038C14.789,16.764 14.498,17.489 14.205,18.215C11.827,24.131 9.453,30.047 7.072,35.964C14.391,38.288 21.472,41.139 28.276,44.472C30.716,38.393 33.16,32.312 35.603,26.232C35.839,25.651 36.072,25.07 36.305,24.489C36.404,24.519 36.5,24.55 36.598,24.581C36.582,24.981 36.574,25.381 36.544,25.779L36.544,25.795C36.368,28.043 36.19,30.29 36.012,32.538C35.836,34.773 35.661,37.007 35.496,39.242C35.293,41.982 36.782,43.895 39.179,44.051C41.603,44.21 43.303,42.589 43.528,39.825C44.173,31.982 44.809,24.138 45.412,16.29C45.475,15.459 45.437,14.69 45.311,13.972C44.779,11.651 43.21,9.955 40.641,8.901C39.157,8.291 37.668,7.7 36.198,7.112C36.187,7.133 36.171,7.154 36.157,7.17C35.164,8.25 34.172,9.327 33.151,10.435C32.636,9.354 32.126,8.289 31.607,7.199C32.957,6.797 34.289,6.4 35.641,5.999C36.212,3.695 36.373,3.644 38.587,3.063C42.557,2.02 45.346,-1.399 45.563,-5.487C45.766,-9.255 43.706,-12.704 40.347,-14.346C40.122,-14.456 39.892,-14.557 39.659,-14.651C39.505,-14.711 39.352,-14.76 39.195,-14.812C39.113,-14.84 39.031,-14.873 38.948,-14.899C35.384,-15.992 31.498,-14.871 29.082,-11.987C26.463,-8.859 26.172,-4.436 28.355,-0.969C29.318,0.562 29.438,1.344 28.613,2.628C28.531,2.772 28.437,2.918 28.328,3.075C29.021,4.294 29.707,5.497 30.398,6.714C29.271,7.14 28.166,7.558 27.044,7.981C27.074,6.476 27.105,5.01 27.135,3.544C27.135,3.523 27.14,3.499 27.143,3.474C25.599,2.849 24.039,2.209 22.462,1.601C20.112,0.695 17.759,0.836 15.872,2.101C15.466,2.407 15.083,2.768 14.729,3.187C9.379,9.579 4.119,16.047 -1.111,22.541C-2.688,24.498 -2.079,27.24 0,28.48M28.492,8.949C28.509,8.937 28.522,8.925 28.536,8.91L29.455,10.81L31.432,10.074C31.435,10.094 31.435,10.112 31.435,10.133C31.435,10.133 31.437,10.133 31.437,10.132L24.028,29.009L21.45,30.725L20.778,27.705L28.492,8.949Z" style="fill:rgb(185,154,72);fill-rule:nonzero;"/>
            </g>
            <g transform="matrix(0.536613,0,0,0.538111,605.054,528.876)">
                <path d="M0,15.088C-3.132,12.468 -7.552,12.175 -11.018,14.359C-12.551,15.324 -13.333,15.443 -14.616,14.618C-14.759,14.535 -14.907,14.442 -15.066,14.333C-16.281,15.026 -17.485,15.711 -18.702,16.404C-19.13,15.273 -19.547,14.17 -19.969,13.049C-18.466,13.079 -16.999,13.108 -15.535,13.139C-15.513,13.139 -15.488,13.144 -15.464,13.148C-14.838,11.603 -14.197,10.044 -13.591,8.468C-12.683,6.116 -12.823,3.763 -14.09,1.876C-14.397,1.47 -14.756,1.085 -15.176,0.734C-21.568,-4.618 -28.037,-9.877 -34.528,-15.105C-36.486,-16.681 -39.228,-16.075 -40.468,-13.994C-41.537,-12.2 -41.115,-10.116 -39.289,-8.604C-37.498,-7.124 -35.702,-5.654 -33.903,-4.187C-32.178,-2.779 -30.453,-1.373 -28.731,0.038C-28.728,0.04 -28.728,0.04 -28.728,0.041C-28.415,0.296 -28.139,0.592 -27.842,0.868C-27.905,0.941 -27.966,1.013 -28.026,1.085C-28.753,0.793 -29.48,0.502 -30.203,0.21C-35.97,-2.106 -41.735,-4.423 -47.499,-6.739C-49.816,0.58 -52.654,7.665 -55.978,14.472C-50.06,16.851 -44.14,19.23 -38.219,21.608C-37.638,21.843 -37.056,22.076 -36.478,22.309C-36.508,22.407 -36.538,22.506 -36.571,22.604C-36.969,22.585 -37.369,22.578 -37.769,22.548C-37.775,22.548 -37.778,22.548 -37.783,22.546C-40.032,22.372 -42.28,22.194 -44.526,22.016C-46.761,21.84 -48.996,21.666 -51.231,21.5C-53.971,21.296 -55.882,22.788 -56.039,25.183C-56.197,27.609 -54.577,29.308 -51.815,29.534C-43.97,30.177 -36.127,30.814 -28.278,31.417C-27.447,31.481 -26.677,31.442 -25.961,31.315C-23.638,30.784 -21.944,29.216 -20.888,26.645C-20.279,25.16 -19.69,23.674 -19.103,22.203C-19.122,22.19 -19.141,22.175 -19.16,22.162C-20.238,21.169 -21.316,20.176 -22.424,19.155C-21.343,18.641 -20.279,18.132 -19.188,17.611C-18.787,18.961 -18.39,20.296 -17.987,21.647C-15.683,22.217 -15.634,22.379 -15.052,24.591C-14.008,28.562 -10.591,31.351 -6.502,31.568C-2.734,31.769 0.716,29.711 2.358,26.351C2.468,26.128 2.57,25.898 2.66,25.662C2.72,25.51 2.773,25.354 2.825,25.201C2.852,25.119 2.885,25.037 2.91,24.954C4.004,21.388 2.882,17.502 0,15.088M-22.062,17.437C-22.084,17.437 -22.103,17.438 -22.122,17.44L-22.122,17.441L-41,10.032L-42.714,7.455L-39.694,6.783L-20.937,14.497L-20.94,14.497C-20.926,14.512 -20.913,14.527 -20.899,14.54L-22.799,15.459L-22.062,17.437Z" style="fill:rgb(185,154,72);fill-rule:nonzero;"/>
            </g>
            <g transform="matrix(0.536613,0,0,0.538111,394.947,470.708)">
                <path d="M0,-15.088C3.13,-12.468 7.551,-12.174 11.019,-14.359C12.549,-15.324 13.333,-15.443 14.616,-14.618C14.76,-14.535 14.907,-14.442 15.063,-14.332C16.282,-15.026 17.485,-15.711 18.702,-16.404C19.129,-15.273 19.546,-14.17 19.97,-13.049C18.464,-13.078 16.999,-13.108 15.533,-13.14C15.512,-13.14 15.486,-13.144 15.463,-13.148C14.836,-11.603 14.196,-10.044 13.59,-8.468C12.683,-6.116 12.823,-3.762 14.089,-1.876C14.396,-1.47 14.755,-1.085 15.176,-0.734C21.566,4.618 28.036,9.877 34.528,15.105C36.485,16.681 39.228,16.075 40.467,13.994C41.537,12.198 41.115,10.116 39.287,8.604C37.498,7.124 35.7,5.654 33.902,4.187C32.178,2.779 30.451,1.373 28.729,-0.038C28.728,-0.04 28.727,-0.041 28.727,-0.041C28.415,-0.296 28.137,-0.591 27.842,-0.868C27.904,-0.94 27.964,-1.013 28.025,-1.085C28.751,-0.793 29.478,-0.503 30.204,-0.211C36.042,2.136 41.881,4.482 47.72,6.829C50.069,-0.481 52.943,-7.551 56.298,-14.344C50.272,-16.766 44.246,-19.186 38.22,-21.608C37.639,-21.843 37.057,-22.076 36.476,-22.309C36.507,-22.407 36.539,-22.506 36.57,-22.604C36.969,-22.585 37.368,-22.578 37.767,-22.548C37.773,-22.548 37.777,-22.548 37.783,-22.546C40.031,-22.372 42.278,-22.192 44.525,-22.016C46.761,-21.84 48.996,-21.666 51.231,-21.5C53.97,-21.296 55.882,-22.787 56.038,-25.183C56.197,-27.609 54.577,-29.308 51.813,-29.534C43.969,-30.177 36.125,-30.814 28.278,-31.417C27.448,-31.48 26.677,-31.442 25.961,-31.315C23.639,-30.784 21.944,-29.216 20.888,-26.645C20.279,-25.16 19.689,-23.674 19.101,-22.203C19.121,-22.19 19.141,-22.175 19.158,-22.162C20.238,-21.169 21.317,-20.176 22.423,-19.155C21.342,-18.64 20.277,-18.132 19.188,-17.611C18.786,-18.96 18.389,-20.295 17.986,-21.647C15.682,-22.216 15.632,-22.379 15.052,-24.591C14.007,-28.562 10.589,-31.351 6.502,-31.569C2.733,-31.769 -0.716,-29.711 -2.359,-26.351C-2.468,-26.128 -2.569,-25.898 -2.662,-25.662C-2.722,-25.51 -2.773,-25.354 -2.825,-25.201C-2.852,-25.118 -2.885,-25.037 -2.911,-24.954C-4.003,-21.388 -2.883,-17.502 0,-15.088M22.062,-17.437C22.082,-17.437 22.101,-17.438 22.121,-17.439L22.121,-17.441L40.998,-10.032L42.714,-7.455L39.693,-6.784L20.937,-14.497L20.939,-14.497C20.924,-14.512 20.912,-14.526 20.898,-14.54L22.797,-15.459L22.062,-17.437Z" style="fill:rgb(185,154,72);fill-rule:nonzero;"/>
            </g>
            <g transform="matrix(0.536613,0,0,0.538111,574.128,473.275)">
                <path d="M0,-32.213C0.51,-30.187 2.284,-29.013 4.645,-29.238C6.957,-29.456 9.266,-29.687 11.578,-29.921C13.791,-30.145 16.007,-30.371 18.222,-30.592L18.225,-30.592C18.626,-30.631 19.031,-30.62 19.435,-30.632C19.443,-30.537 19.451,-30.443 19.459,-30.348C18.741,-30.041 18.022,-29.733 17.301,-29.428C11.493,-26.948 5.685,-24.469 -0.123,-21.992C3.373,-15.268 6.395,-8.257 8.893,-1.004C14.849,-3.545 20.806,-6.087 26.762,-8.628C27.34,-8.873 27.916,-9.119 28.492,-9.365C28.539,-9.274 28.585,-9.183 28.635,-9.091C28.339,-8.821 28.051,-8.544 27.746,-8.284C27.744,-8.28 27.741,-8.277 27.735,-8.273C26.021,-6.807 24.305,-5.345 22.594,-3.881C20.888,-2.425 19.185,-0.968 17.487,0.496C15.406,2.289 15.107,4.695 16.692,6.499C18.294,8.328 20.641,8.382 22.755,6.588C28.755,1.496 34.753,-3.601 40.728,-8.722C41.362,-9.266 41.877,-9.837 42.294,-10.434C43.561,-12.449 43.652,-14.758 42.579,-17.323C41.962,-18.802 41.326,-20.272 40.704,-21.726C40.679,-21.722 40.654,-21.716 40.632,-21.716C39.168,-21.653 37.704,-21.594 36.198,-21.532C36.598,-22.662 36.993,-23.775 37.396,-24.912C38.633,-24.243 39.859,-23.58 41.099,-22.907C43.13,-24.134 43.279,-24.054 45.256,-22.902C48.802,-20.833 53.189,-21.277 56.236,-24.014C59.041,-26.535 60.026,-30.43 58.811,-33.967C58.729,-34.203 58.638,-34.437 58.537,-34.67C58.474,-34.82 58.4,-34.965 58.326,-35.11C58.287,-35.188 58.251,-35.269 58.213,-35.345C56.463,-38.641 52.923,-40.595 49.177,-40.264C45.113,-39.904 41.779,-36.984 40.871,-32.986C40.471,-31.223 40.002,-30.585 38.51,-30.261C38.351,-30.219 38.181,-30.18 37.994,-30.148C37.621,-28.795 37.254,-27.459 36.886,-26.109C35.784,-26.606 34.709,-27.092 33.615,-27.585C34.701,-28.629 35.759,-29.645 36.818,-30.659C36.832,-30.675 36.853,-30.688 36.873,-30.702C36.223,-32.237 35.573,-33.793 34.887,-35.336C33.867,-37.64 32.101,-39.205 29.874,-39.643C29.37,-39.714 28.843,-39.732 28.298,-39.682C19.994,-38.948 11.701,-38.093 3.414,-37.198C0.913,-36.929 -0.598,-34.56 0,-32.213M33.955,-25.877C33.974,-25.875 33.993,-25.873 34.015,-25.873L33.319,-23.881L35.238,-23.004C35.225,-22.989 35.214,-22.974 35.2,-22.959L16.613,-14.849L13.58,-15.457L15.239,-18.068L33.955,-25.877Z" style="fill:rgb(185,154,72);fill-rule:nonzero;"/>
            </g>
            <g transform="matrix(0.536613,0,0,0.538111,425.874,526.31)">
                <path d="M0,32.213C-0.513,30.187 -2.284,29.013 -4.648,29.238C-6.959,29.456 -9.268,29.687 -11.578,29.92C-13.794,30.145 -16.007,30.371 -18.223,30.592L-18.227,30.592C-18.628,30.631 -19.034,30.62 -19.436,30.632C-19.445,30.537 -19.453,30.443 -19.461,30.348C-18.741,30.041 -18.022,29.733 -17.302,29.428C-11.605,26.996 -5.907,24.565 -0.209,22.134C-3.676,15.395 -6.667,8.371 -9.132,1.105C-15.009,3.612 -20.887,6.12 -26.765,8.628C-27.341,8.873 -27.916,9.119 -28.494,9.365C-28.542,9.274 -28.588,9.183 -28.636,9.091C-28.341,8.821 -28.051,8.544 -27.748,8.284C-27.745,8.28 -27.741,8.277 -27.737,8.273C-26.024,6.807 -24.308,5.345 -22.594,3.881C-20.889,2.425 -19.186,0.967 -17.488,-0.496C-15.408,-2.288 -15.109,-4.695 -16.693,-6.499C-18.296,-8.328 -20.643,-8.382 -22.757,-6.588C-28.758,-1.497 -34.754,3.601 -40.73,8.722C-41.362,9.266 -41.88,9.837 -42.296,10.434C-43.563,12.449 -43.652,14.758 -42.581,17.323C-41.963,18.802 -41.328,20.272 -40.705,21.726C-40.681,21.722 -40.656,21.716 -40.634,21.716C-39.169,21.653 -37.704,21.594 -36.201,21.532C-36.599,22.662 -36.994,23.774 -37.397,24.912C-38.634,24.243 -39.86,23.58 -41.099,22.907C-43.131,24.134 -43.281,24.054 -45.257,22.902C-48.802,20.833 -53.191,21.277 -56.237,24.012C-59.043,26.535 -60.026,30.43 -58.812,33.967C-58.73,34.203 -58.64,34.437 -58.539,34.669C-58.474,34.82 -58.4,34.965 -58.327,35.11C-58.289,35.188 -58.254,35.27 -58.213,35.345C-56.465,38.641 -52.924,40.595 -49.179,40.264C-45.113,39.904 -41.78,36.984 -40.873,32.987C-40.472,31.223 -40.003,30.584 -38.512,30.261C-38.351,30.219 -38.182,30.18 -37.995,30.146C-37.623,28.795 -37.257,27.459 -36.886,26.109C-35.785,26.606 -34.71,27.092 -33.617,27.585C-34.702,28.629 -35.759,29.645 -36.818,30.659C-36.834,30.672 -36.855,30.688 -36.875,30.702C-36.223,32.237 -35.574,33.793 -34.889,35.336C-33.867,37.64 -32.104,39.205 -29.875,39.644C-29.371,39.715 -28.845,39.732 -28.298,39.682C-19.995,38.948 -11.703,38.093 -3.415,37.199C-0.915,36.929 0.595,34.56 0,32.213M-33.957,25.877L-33.956,25.877C-33.977,25.875 -33.995,25.873 -34.016,25.873L-33.321,23.881L-35.24,23.004C-35.226,22.989 -35.214,22.974 -35.201,22.959L-16.614,14.849L-13.58,15.457L-15.241,18.069L-33.957,25.877Z" style="fill:rgb(185,154,72);fill-rule:nonzero;"/>
            </g>
            <g transform="matrix(0.536613,0,0,0.538111,473.337,403.766)">
                <path d="M0,21.194C-0.516,20.036 -0.941,19.065 -1.34,18.008L-1.429,17.771C-1.612,17.298 -1.818,16.76 -1.963,16.134C-2.188,15.162 -2.453,14.202 -2.716,13.24C-2.897,12.578 -3.079,11.916 -3.249,11.252C-3.408,10.631 -3.503,9.966 -3.538,9.218C-3.566,8.607 -3.561,7.996 -3.553,7.387L-3.549,6.95C-3.548,6.754 -3.54,6.556 -3.531,6.355C-3.525,6.203 -3.513,6.052 -3.52,5.902C-3.529,5.667 -3.521,5.44 -3.517,5.212C-5.118,3.336 -6.708,1.454 -8.312,-0.417C-8.855,-1.05 -9.427,-1.568 -10.024,-1.984C-12.04,-3.251 -14.348,-3.34 -16.913,-2.268C-18.392,-1.65 -19.862,-1.016 -21.316,-0.393C-21.312,-0.368 -21.306,-0.343 -21.306,-0.321C-21.243,1.143 -21.184,2.609 -21.122,4.112C-22.251,3.712 -23.363,3.319 -24.502,2.916C-23.832,1.678 -23.17,0.453 -22.498,-0.786C-23.724,-2.818 -23.644,-2.968 -22.491,-4.943C-20.423,-8.489 -20.867,-12.878 -23.603,-15.923C-26.125,-18.73 -30.02,-19.713 -33.557,-18.5C-33.792,-18.418 -34.027,-18.327 -34.26,-18.226C-34.41,-18.161 -34.555,-18.087 -34.699,-18.015C-34.778,-17.976 -34.86,-17.942 -34.935,-17.902C-38.231,-16.152 -40.185,-12.613 -39.854,-8.867C-39.494,-4.801 -36.574,-1.467 -32.577,-0.56C-30.813,-0.159 -30.176,0.309 -29.852,1.801C-29.809,1.962 -29.77,2.13 -29.738,2.318C-28.385,2.69 -27.051,3.057 -25.7,3.427C-26.197,4.528 -26.682,5.603 -27.175,6.694C-28.219,5.61 -29.235,4.553 -30.249,3.495C-30.265,3.48 -30.278,3.458 -30.293,3.438C-31.827,4.088 -33.383,4.738 -34.926,5.424C-37.23,6.446 -38.795,8.209 -39.234,10.437C-39.305,10.942 -39.322,11.468 -39.273,12.014C-38.539,20.316 -37.683,28.61 -36.789,36.898C-36.52,39.397 -34.152,40.907 -31.803,40.313C-29.777,39.799 -28.603,38.029 -28.828,35.666C-29.046,33.355 -29.277,31.045 -29.51,28.734C-29.735,26.52 -29.961,24.305 -30.182,22.09L-30.182,22.086C-30.221,21.686 -30.21,21.28 -30.222,20.877C-30.127,20.868 -30.033,20.86 -29.939,20.851C-29.631,21.57 -29.324,22.29 -29.017,23.011C-26.517,28.868 -24.018,34.728 -21.519,40.585C-14.783,37.11 -7.763,34.112 -0.5,31.634C-3.073,25.606 -5.646,19.577 -8.218,13.548C-8.463,12.972 -8.709,12.395 -8.955,11.819C-8.864,11.772 -8.772,11.725 -8.681,11.678C-8.412,11.972 -8.134,12.262 -7.874,12.563C-7.87,12.568 -7.867,12.572 -7.863,12.576C-6.397,14.289 -4.935,16.005 -3.471,17.719C-2.16,19.254 -0.847,20.788 0.472,22.318C0.427,22.209 0.374,22.091 0.331,21.986C0.224,21.721 0.117,21.455 0,21.194M-15.047,26.733L-17.659,25.072L-25.467,6.356L-25.467,6.358C-25.465,6.336 -25.465,6.318 -25.464,6.297L-23.471,6.992L-22.594,5.073C-22.579,5.086 -22.564,5.098 -22.549,5.112L-22.549,5.111L-14.44,23.699L-15.047,26.733Z" style="fill:rgb(185,154,72);fill-rule:nonzero;"/>
            </g>
            <g transform="matrix(0.536613,0,0,0.538111,617.228,500.697)">
                <path d="M0,-2.785C0.008,-1.072 5.175,1.498 5.166,0.012C5.175,-1.697 0.006,-4.283 0,-2.785" style="fill:rgb(185,154,72);fill-rule:nonzero;"/>
            </g>
            <g transform="matrix(0.536613,0,0,0.538111,576.774,562.232)">
                <path d="M0,19.591C-1.835,19.971 -2.907,19.487 -3.913,18.183C-4.05,18.002 -4.218,17.841 -4.511,17.514C-3.077,16.082 -1.7,14.73 -0.351,13.349C1.941,11.004 2.526,8.006 1.045,5.121C-2.709,-2.183 -6.535,-9.449 -10.369,-16.712C-11.304,-18.487 -13.179,-19.236 -14.998,-18.723C-17.581,-17.994 -18.669,-15.284 -17.348,-12.738C-15.14,-8.474 -12.892,-4.23 -10.662,0.026C-10.437,0.457 -10.242,0.905 -10.029,1.349C-10.53,1.718 -10.923,2.004 -11.356,2.323C-15.011,-4.378 -18.65,-11.04 -22.298,-17.727C-29.107,-9.339 -36.771,-1.676 -45.163,5.134C-38.458,8.794 -31.767,12.446 -25.056,16.109C-25.443,16.546 -25.714,16.854 -26.005,17.182C-26.521,16.921 -26.97,16.699 -27.415,16.466C-31.638,14.256 -35.847,12.023 -40.078,9.837C-42.289,8.697 -44.738,9.492 -45.854,11.633C-46.89,13.628 -46.18,15.988 -44.082,17.096C-36.854,20.912 -29.611,24.703 -22.352,28.459C-20.268,29.535 -18.08,29.602 -15.987,28.466C-15.151,28.013 -14.408,27.351 -13.709,26.693C-12.423,25.482 -11.2,24.206 -9.886,22.891C-9.409,23.366 -9.088,23.76 -8.699,24.062C-7.722,24.82 -7.473,25.608 -7.785,26.929C-8.723,30.86 -6.738,34.922 -3.2,36.865C0.376,38.827 4.708,38.272 7.681,35.47C10.626,32.692 11.435,28.314 9.677,24.677C7.914,21.034 3.965,18.77 0,19.591" style="fill:rgb(185,154,72);fill-rule:nonzero;"/>
            </g>
            <g transform="matrix(0.536613,0,0,0.538111,544.147,583.812)">
                <path d="M0,22.873C-1.766,22.473 -2.405,22.004 -2.729,20.513C-2.77,20.351 -2.808,20.183 -2.841,19.995C-3.727,19.752 -4.602,19.51 -5.482,19.268C-5.945,19.141 -6.411,19.013 -6.878,18.886C-6.513,18.077 -6.154,17.28 -5.792,16.482C-5.663,16.194 -5.534,15.906 -5.405,15.618C-4.36,16.704 -3.346,17.76 -2.328,18.819C-2.314,18.834 -2.301,18.854 -2.287,18.875C-0.751,18.225 0.804,17.574 2.347,16.889C4.651,15.867 6.217,14.103 6.655,11.875C6.724,11.371 6.743,10.845 6.694,10.298C5.959,1.996 5.103,-6.298 4.209,-14.586C3.941,-17.083 1.571,-18.594 -0.776,-18C-2.8,-17.486 -3.974,-15.716 -3.751,-13.352C-3.532,-11.042 -3.302,-8.73 -3.069,-6.421C-2.844,-4.207 -2.616,-1.991 -2.397,0.223L-2.397,0.227C-2.358,0.628 -2.369,1.034 -2.358,1.437C-2.452,1.445 -2.545,1.453 -2.641,1.461C-2.948,0.743 -3.255,0.022 -3.562,-0.697C-5.101,-4.302 -6.636,-7.904 -8.175,-11.506C-9.047,-13.551 -9.919,-15.596 -10.791,-17.641C-11.965,-17.033 -13.155,-16.459 -14.348,-15.88C-19.983,-13.136 -25.797,-10.706 -31.791,-8.649C-29.315,-2.845 -26.839,2.961 -24.362,8.765C-24.116,9.341 -23.869,9.919 -23.622,10.493C-23.715,10.541 -23.806,10.589 -23.899,10.636C-24.168,10.341 -24.445,10.053 -24.705,9.75C-24.708,9.746 -24.714,9.742 -24.716,9.736C-26.181,8.024 -27.645,6.308 -29.107,4.594C-30.563,2.889 -32.022,1.186 -33.483,-0.512C-35.277,-2.592 -37.684,-2.891 -39.489,-1.307C-41.315,0.296 -41.37,2.643 -39.577,4.758C-34.484,10.758 -29.389,16.754 -24.266,22.73C-23.723,23.363 -23.153,23.881 -22.555,24.296C-20.54,25.563 -18.231,25.652 -15.667,24.58C-14.197,23.967 -12.738,23.338 -11.295,22.718C-11.282,22.714 -11.273,22.71 -11.263,22.706C-11.268,22.681 -11.271,22.655 -11.273,22.634C-11.334,21.17 -11.394,19.704 -11.457,18.2C-10.327,18.601 -9.214,18.994 -8.076,19.397C-8.748,20.635 -9.409,21.86 -10.081,23.099C-8.855,25.133 -8.934,25.282 -10.086,27.257C-10.484,27.937 -10.758,28.654 -10.972,29.379C-11.603,31.519 -11.465,33.787 -10.561,35.801C-10.166,36.672 -9.642,37.495 -8.976,38.237C-7.689,39.669 -6.041,40.62 -4.267,41.053C-2.567,41.467 -0.751,41.407 0.979,40.813C1.215,40.731 1.448,40.64 1.681,40.54C1.832,40.474 1.974,40.4 2.122,40.328C2.199,40.289 2.282,40.255 2.358,40.214C5.652,38.464 7.607,34.925 7.275,31.179C6.916,27.114 3.995,23.779 0,22.873M-7.113,15.956L-7.113,16.016L-9.107,15.322L-9.985,17.24C-9.998,17.227 -10.015,17.214 -10.029,17.201L-10.029,17.202L-12.486,11.571L-18.14,-1.385L-17.531,-4.421L-14.918,-2.759L-13.47,0.714L-7.111,15.957L-7.113,15.957L-7.113,15.956Z" style="fill:rgb(185,154,72);fill-rule:nonzero;"/>
            </g>
            <g transform="matrix(0.536613,0,0,0.538111,511.82,612.533)">
                <path d="M0,-50.03C-2.342,-51.339 -5.026,-50.194 -5.896,-47.46C-7.349,-42.884 -8.759,-38.29 -10.193,-33.707C-10.338,-33.242 -10.517,-32.786 -10.681,-32.322C-11.295,-32.418 -11.773,-32.49 -12.307,-32.573C-10.157,-39.892 -8.018,-47.168 -5.871,-54.474C-11.18,-53.925 -16.569,-53.64 -22.027,-53.64C-26.507,-53.64 -30.942,-53.843 -35.328,-54.216C-36.286,-54.297 -37.243,-54.377 -38.195,-54.475C-37.74,-52.924 -37.284,-51.375 -36.829,-49.826C-35.134,-44.056 -33.441,-38.29 -31.743,-32.512C-32.326,-32.477 -32.736,-32.451 -33.173,-32.425C-33.352,-32.973 -33.515,-33.449 -33.664,-33.927C-35.059,-38.392 -36.433,-42.863 -37.852,-47.316C-37.879,-47.401 -37.904,-47.486 -37.931,-47.57C-38.674,-49.896 -40.902,-51.056 -43.164,-50.407C-43.203,-50.396 -43.242,-50.395 -43.283,-50.382C-45.429,-49.708 -46.594,-47.534 -45.893,-45.265C-45.757,-44.826 -45.617,-44.388 -45.481,-43.948C-44.463,-40.655 -43.419,-37.372 -42.39,-34.082C-41.116,-30.011 -39.858,-25.934 -38.564,-21.867C-37.852,-19.632 -36.352,-18.037 -34.069,-17.36C-33.158,-17.091 -32.164,-17.033 -31.204,-17.006C-29.44,-16.95 -27.67,-16.99 -25.81,-16.99C-25.81,-16.314 -25.862,-15.812 -25.8,-15.321C-25.646,-14.094 -26.025,-13.362 -27.183,-12.65C-30.624,-10.531 -32.093,-6.256 -30.964,-2.379C-29.826,1.537 -26.368,4.207 -22.285,4.328C-18.239,4.445 -14.57,1.921 -13.242,-1.895C-11.912,-5.716 -13.105,-10.109 -16.489,-12.332C-18.055,-13.362 -18.469,-14.461 -18.258,-16.094C-18.228,-16.322 -18.233,-16.551 -18.211,-16.99C-16.185,-16.99 -14.254,-16.972 -12.324,-16.994C-9.044,-17.032 -6.51,-18.738 -5.52,-21.827C-3.008,-29.644 -0.576,-37.488 1.851,-45.332C2.443,-47.252 1.648,-49.106 0,-50.03" style="fill:rgb(185,154,72);fill-rule:nonzero;"/>
            </g>
            <g transform="matrix(0.536613,0,0,0.538111,535.136,429.042)">
                <path d="M0,264.365C0.06,264.334 0.118,264.286 0.176,264.243C0.236,264.223 0.293,264.213 0.362,264.179C0.899,263.897 1.423,263.596 1.958,263.309C4.004,262.213 6.019,261.067 8.005,259.879C56.647,230.76 85.68,175.002 81.103,118.1C76.052,55.309 29.831,1.474 -31.525,-12.829C-40.355,-14.888 -49.265,-16.048 -58.145,-16.408C-58.145,-16.21 -58.139,-16.013 -58.139,-15.817L-58.136,-15.485C-58.134,-14.17 -58.38,-12.913 -58.868,-11.744C-58.956,-11.532 -59.033,-11.317 -59.112,-11.101C-59.151,-10.991 -59.195,-10.885 -59.236,-10.775C-58.767,-10.751 -58.298,-10.745 -57.824,-10.716C1.316,-7.039 53.656,33.392 71.724,89.922C90.153,147.579 69.404,211.714 20.271,247.219C16.207,250.156 11.981,252.841 7.646,255.341C5.781,256.415 3.9,257.461 1.994,258.464C1.807,258.562 1.621,258.668 1.431,258.767C-10.061,264.555 -22.125,268.712 -34.429,271.28C-36.42,271.696 -38.419,272.06 -40.421,272.392C-51.574,274.241 -62.872,274.793 -74.08,274.075C-76.17,273.942 -78.258,273.771 -80.341,273.549C-92.553,272.246 -104.594,269.422 -116.152,265.106C-118.054,264.396 -119.947,263.655 -121.822,262.863C-135.028,257.29 -147.511,249.724 -158.77,240.188C-205.107,200.944 -222.438,134.137 -199.628,77.669C-182.889,36.231 -146.552,5.863 -104.476,-5.765C-105.811,-5.914 -107.007,-6.577 -107.84,-7.651C-108.247,-8.177 -108.683,-8.764 -109.101,-9.413C-141.594,1.039 -170.433,22.558 -189.196,52.361C-221.705,103.996 -220.506,172.025 -183.952,221.342C-168.189,242.608 -146.999,258.668 -123.307,268.618C-121.39,269.422 -119.46,270.193 -117.512,270.918C-106.214,275.117 -94.417,277.943 -82.417,279.311C-80.37,279.544 -78.319,279.731 -76.263,279.879C-63.81,280.773 -51.201,280.11 -38.762,277.738C-36.779,277.361 -34.805,276.934 -32.833,276.471C-29.276,275.634 -25.734,274.665 -22.221,273.545C-14.567,271.101 -7.168,267.985 0,264.365" style="fill:rgb(185,154,72);fill-rule:nonzero;"/>
            </g>
            <g transform="matrix(0.536613,0,0,0.538111,617.228,498.504)">
                <path d="M0,1.29C-0.343,91.73 -56.916,174.852 -141.537,207.39C-227.948,240.617 -329.015,215.042 -387.828,143.214C-445.651,72.593 -453.177,-29.705 -406.687,-108.199C-360.129,-186.808 -267.225,-229.572 -177.223,-213.08C-87.218,-196.589 -16.292,-122.631 -2.534,-32.303C-0.839,-21.18 -0.041,-9.957 0,1.29C0.006,-0.208 5.175,2.378 5.166,4.087C4.818,-88.263 -53.867,-172.444 -140.007,-205.569C-227.801,-239.327 -329.897,-213.448 -390.523,-141.439C-451.23,-69.332 -459.04,36.287 -410.178,116.785C-362.418,195.467 -268.654,238.392 -177.927,222.504C-86.053,206.418 -12.351,131.36 2.378,39.321C4.242,27.664 5.123,15.889 5.166,4.087C5.175,5.573 0.008,3.003 0,1.29" style="fill:rgb(185,154,72);fill-rule:nonzero;"/>
            </g>
            <g transform="matrix(0.536613,0,0,0.538111,478.507,598.741)">
                <path d="M0,-28.58C-1.795,-29.649 -3.878,-29.227 -5.39,-27.398C-6.87,-25.609 -8.34,-23.811 -9.808,-22.015C-11.215,-20.289 -12.623,-18.564 -14.032,-16.84C-14.034,-16.84 -14.035,-16.839 -14.035,-16.838C-14.291,-16.528 -14.586,-16.248 -14.862,-15.955C-14.935,-16.015 -15.006,-16.077 -15.08,-16.137C-14.789,-16.864 -14.497,-17.589 -14.205,-18.316C-11.919,-24.003 -9.633,-29.692 -7.347,-35.379C-9.156,-35.957 -10.948,-36.57 -12.728,-37.21C-14.737,-37.937 -16.722,-38.709 -18.692,-39.513C-22.029,-40.876 -25.315,-42.343 -28.531,-43.928C-30.889,-38.063 -33.247,-32.197 -35.602,-26.333C-35.837,-25.751 -36.07,-25.17 -36.304,-24.589C-36.401,-24.619 -36.5,-24.65 -36.598,-24.681C-36.58,-25.081 -36.572,-25.481 -36.542,-25.879L-36.542,-25.895C-36.366,-28.144 -36.188,-30.39 -36.01,-32.637C-35.834,-34.873 -35.66,-37.107 -35.494,-39.342C-35.29,-42.082 -36.782,-43.995 -39.177,-44.151C-41.603,-44.31 -43.302,-42.688 -43.528,-39.925C-44.171,-32.082 -44.807,-24.238 -45.411,-16.391C-45.475,-15.558 -45.436,-14.789 -45.309,-14.072C-44.778,-11.751 -43.209,-10.055 -40.638,-9C-39.155,-8.391 -37.668,-7.8 -36.198,-7.212C-36.184,-7.233 -36.17,-7.255 -36.156,-7.27C-35.163,-8.35 -34.17,-9.428 -33.149,-10.536C-32.634,-9.454 -32.126,-8.389 -31.607,-7.299C-32.955,-6.897 -34.289,-6.501 -35.641,-6.099C-36.212,-3.794 -36.374,-3.744 -38.584,-3.162C-42.555,-2.12 -45.345,1.3 -45.563,5.387C-45.765,9.155 -43.705,12.604 -40.345,14.246C-40.122,14.356 -39.892,14.457 -39.656,14.551C-39.505,14.611 -39.35,14.66 -39.195,14.712C-39.112,14.74 -39.031,14.773 -38.949,14.8C-35.906,15.73 -32.64,15.04 -30.245,13.03C-29.832,12.684 -29.437,12.311 -29.082,11.888C-26.484,8.786 -26.183,4.417 -28.306,0.961C-28.324,0.931 -28.335,0.9 -28.353,0.868C-29.318,-0.662 -29.437,-1.444 -28.613,-2.729C-28.529,-2.872 -28.436,-3.018 -28.326,-3.176C-29.02,-4.394 -29.706,-5.597 -30.397,-6.813C-29.268,-7.24 -28.164,-7.658 -27.044,-8.081C-27.064,-7.039 -27.085,-6.026 -27.105,-5.007C-27.115,-4.555 -27.123,-4.096 -27.133,-3.644C-27.133,-3.622 -27.139,-3.598 -27.142,-3.574C-25.597,-2.949 -24.039,-2.309 -22.462,-1.701C-22.201,-1.601 -21.94,-1.518 -21.678,-1.442C-19.594,-0.845 -17.547,-1.076 -15.87,-2.201C-15.464,-2.506 -15.081,-2.868 -14.729,-3.288C-9.376,-9.679 -4.117,-16.149 1.111,-22.643C2.688,-24.598 2.081,-27.34 0,-28.58M-28.491,-9.049L-28.491,-9.051C-28.507,-9.037 -28.52,-9.025 -28.535,-9.01L-29.453,-10.91L-31.431,-10.172C-31.433,-10.194 -31.433,-10.212 -31.434,-10.233L-31.435,-10.231L-24.026,-29.109L-21.449,-30.825L-20.778,-27.805L-28.491,-9.049Z" style="fill:rgb(185,154,72);fill-rule:nonzero;"/>
            </g>
            <g transform="matrix(0.536613,0,0,0.538111,561.852,471.637)">
                <path d="M0,38.371C-0.25,38.021 -0.557,37.707 -0.869,37.415C-1.445,36.884 -2.09,36.44 -2.781,36.08C-3.71,35.594 -4.538,34.988 -5.268,34.234C-5.934,33.544 -6.713,32.981 -7.574,32.568C-8.468,32.139 -9.357,31.687 -10.317,31.397C-10.684,31.286 -11.046,31.122 -11.378,30.921C-12.379,30.315 -13.297,29.594 -14.076,28.709C-14.646,28.06 -15.225,27.416 -15.801,26.774C-16.064,26.482 -16.289,26.164 -16.44,25.802C-16.676,25.242 -16.857,24.665 -16.953,24.064C-17.049,23.456 -17.024,22.849 -16.821,22.268C-16.665,21.821 -16.489,21.375 -16.27,20.955C-15.785,20.033 -15.184,19.186 -14.504,18.397C-14.197,18.039 -13.846,17.707 -13.481,17.406C-12.508,16.607 -11.476,15.899 -10.286,15.446C-9.804,15.26 -9.343,15.007 -8.855,14.841C-7.034,14.217 -5.482,13.086 -3.812,12.175C-3.274,11.882 -2.868,11.422 -2.575,10.877C-2.29,10.352 -2.249,9.809 -2.457,9.248C-2.737,8.497 -3.277,8.032 -4.056,7.881C-4.914,7.715 -5.786,7.704 -6.628,7.955C-7.538,8.226 -8.441,8.528 -9.296,8.959C-10.305,9.467 -11.265,10.04 -12.135,10.766C-12.798,11.319 -13.514,11.815 -14.139,12.41C-14.806,13.047 -15.529,13.575 -16.374,13.937C-17.128,14.26 -17.902,14.546 -18.639,14.905C-20.169,15.652 -21.801,16.061 -23.446,16.444C-24.667,16.728 -25.871,17.08 -27.031,17.563C-27.31,17.68 -27.587,17.803 -27.864,17.925C-28.72,18.302 -29.466,18.156 -30.094,17.452C-30.236,17.29 -30.39,17.135 -30.552,16.993C-30.845,16.737 -31.122,16.449 -31.454,16.257C-32.584,15.602 -33.604,14.807 -34.525,13.886C-34.649,13.764 -34.789,13.661 -34.923,13.555C-35.507,13.095 -36.014,12.566 -36.442,11.963C-37.092,11.044 -37.819,10.187 -38.554,9.334C-39.744,7.948 -40.742,6.44 -41.403,4.719C-41.99,3.184 -42.612,1.662 -43.232,0.14C-43.627,-0.826 -43.94,-1.816 -44.148,-2.832C-44.323,-3.686 -44.578,-4.507 -44.888,-5.316C-45.275,-6.328 -45.593,-7.363 -45.788,-8.429C-46.095,-10.088 -46.421,-11.743 -46.668,-13.411C-46.978,-15.511 -47.318,-17.6 -47.806,-19.665C-47.875,-19.959 -47.91,-20.26 -47.976,-20.556C-48.135,-21.274 -48.281,-21.996 -48.47,-22.705C-48.637,-23.334 -48.785,-23.964 -48.823,-24.614C-48.865,-25.266 -49.002,-25.896 -49.147,-26.531C-49.487,-28.005 -49.824,-29.483 -50.118,-30.968C-50.326,-32.03 -50.576,-33.08 -50.861,-34.124C-51.053,-34.834 -51.242,-35.544 -51.398,-36.262C-51.637,-37.363 -51.933,-38.446 -52.32,-39.506C-52.707,-40.564 -52.997,-41.651 -53.181,-42.763C-53.324,-43.621 -53.568,-44.447 -53.853,-45.265C-54.212,-46.285 -54.569,-47.308 -54.865,-48.348C-55.539,-50.724 -56.411,-53.027 -57.418,-55.283C-57.81,-56.168 -58.4,-56.907 -59.08,-57.58C-59.554,-58.049 -60.127,-58.341 -60.78,-58.475C-60.906,-58.501 -61.035,-58.527 -61.164,-58.54C-61.819,-58.614 -62.414,-58.841 -62.99,-59.166C-63.437,-59.422 -63.922,-59.619 -64.397,-59.822C-64.915,-60.043 -65.439,-60.245 -65.963,-60.448C-66.366,-60.606 -66.761,-60.793 -67.178,-60.9C-68.683,-61.29 -70.145,-61.852 -71.689,-62.106C-71.988,-62.155 -72.281,-62.241 -72.563,-62.348C-73.496,-62.711 -74.467,-62.911 -75.443,-63.111C-75.991,-63.223 -76.545,-63.357 -77.064,-63.564C-77.796,-63.858 -78.542,-64.04 -79.318,-64.141C-80.349,-64.275 -81.369,-64.462 -82.367,-64.761C-82.778,-64.884 -83.209,-64.963 -83.634,-65.03C-84.363,-65.145 -85.077,-65.319 -85.77,-65.565C-86.508,-65.825 -87.259,-66.019 -88.033,-66.145C-88.715,-66.257 -89.376,-66.466 -90.043,-66.652C-91.373,-67.022 -92.722,-67.336 -94.063,-67.672C-94.104,-67.684 -94.148,-67.687 -94.189,-67.694C-95.259,-67.864 -96.328,-68.025 -97.392,-68.209C-97.817,-68.283 -98.234,-68.402 -98.654,-68.509C-99.493,-68.723 -100.326,-68.945 -101.165,-69.158C-102.698,-69.547 -104.097,-70.193 -105.301,-71.232C-106.025,-71.854 -106.729,-72.494 -107.473,-73.088C-108.092,-73.583 -108.6,-74.16 -108.956,-74.867C-109.206,-75.368 -109.444,-75.878 -109.661,-76.396C-109.894,-76.955 -110.081,-77.53 -110.311,-78.092C-110.541,-78.658 -110.692,-79.239 -110.766,-79.844C-110.859,-80.617 -110.95,-81.39 -111.068,-82.16C-111.153,-82.714 -111.254,-83.268 -111.4,-83.811C-111.567,-84.439 -111.707,-85.07 -111.748,-85.721C-111.781,-86.242 -111.885,-86.749 -112.036,-87.247C-112.113,-87.496 -112.189,-87.745 -112.25,-87.996C-112.466,-88.906 -112.428,-89.795 -112.058,-90.665C-111.838,-91.183 -111.671,-91.722 -111.455,-92.24C-111.117,-93.053 -110.964,-93.899 -110.966,-94.774C-110.969,-96.156 -110.969,-97.541 -111.013,-98.924C-111.038,-99.797 -111.021,-100.654 -110.717,-101.483C-110.519,-102.024 -110.508,-102.579 -110.572,-103.147C-110.632,-103.704 -110.673,-104.27 -110.659,-104.83C-110.613,-106.396 -110.802,-107.942 -111.087,-109.474C-111.285,-110.544 -111.383,-111.612 -111.364,-112.697C-111.356,-113.259 -111.391,-113.822 -111.413,-114.384C-111.419,-114.556 -111.438,-114.729 -111.449,-114.902C-111.487,-115.49 -111.704,-115.991 -112.168,-116.373C-112.233,-116.428 -112.296,-116.49 -112.362,-116.542C-113.061,-117.07 -113.393,-117.793 -113.519,-118.642C-113.656,-119.583 -113.829,-120.52 -113.994,-121.457C-114.038,-121.713 -114.073,-121.973 -114.153,-122.218C-114.681,-123.91 -115.152,-125.621 -115.923,-127.229C-116.126,-127.656 -116.302,-128.107 -116.42,-128.565C-116.642,-129.418 -117.039,-130.179 -117.562,-130.876C-118.706,-132.398 -119.882,-133.894 -121.216,-135.258C-121.515,-135.565 -121.857,-135.838 -122.201,-136.098C-123.784,-137.298 -125.501,-138.321 -126.95,-139.699C-126.981,-139.73 -127.019,-139.752 -127.053,-139.779C-128.029,-140.568 -129.01,-141.349 -129.974,-142.15C-130.306,-142.424 -130.631,-142.722 -130.897,-143.058C-131.632,-143.987 -132.585,-144.517 -133.732,-144.745C-134.028,-144.804 -134.327,-144.876 -134.601,-144.998C-135.681,-145.475 -136.843,-145.644 -137.972,-145.933C-138.698,-146.118 -139.427,-146.072 -140.154,-145.875C-141.698,-145.455 -143.254,-145.083 -144.835,-144.824C-145.132,-144.774 -145.419,-144.671 -145.707,-144.578C-146.035,-144.471 -146.353,-144.322 -146.686,-144.235C-147.655,-143.984 -148.567,-143.583 -149.473,-143.172C-149.862,-142.995 -150.249,-142.783 -150.589,-142.525C-151.249,-142.024 -151.962,-141.622 -152.705,-141.267C-153.212,-141.024 -153.734,-140.812 -154.235,-140.558C-155.606,-139.86 -156.834,-139.008 -157.502,-137.537C-157.663,-137.189 -157.904,-136.87 -158.147,-136.567C-158.795,-135.758 -159.447,-134.947 -160.129,-134.166C-160.677,-133.542 -161.118,-132.857 -161.492,-132.121C-161.942,-131.235 -162.393,-130.349 -162.959,-129.525C-163.15,-129.244 -163.318,-128.916 -163.384,-128.587C-163.603,-127.484 -163.859,-126.39 -164.131,-125.299C-164.203,-125.008 -164.189,-124.698 -164.231,-124.397C-164.291,-123.971 -164.312,-123.527 -164.448,-123.123C-164.764,-122.161 -164.856,-121.182 -164.819,-120.178C-164.805,-119.791 -164.845,-119.401 -164.847,-119.011C-164.851,-118.319 -164.871,-117.627 -164.838,-116.936C-164.818,-116.464 -164.762,-115.984 -164.644,-115.526C-164.225,-113.894 -163.738,-112.279 -163.358,-110.635C-163.24,-110.132 -163.039,-109.648 -162.855,-109.162C-162.474,-108.15 -162.038,-107.163 -161.598,-106.175C-161.143,-105.148 -160.803,-104.07 -160.165,-103.13C-160.141,-103.095 -160.127,-103.053 -160.109,-103.014C-159.877,-102.525 -159.817,-102.023 -159.975,-101.499C-160.037,-101.293 -160.101,-101.086 -160.164,-100.878C-160.297,-100.437 -160.227,-100.016 -159.998,-99.63C-159.8,-99.296 -159.584,-98.97 -159.348,-98.661C-158.973,-98.173 -158.728,-97.632 -158.554,-97.042C-158.053,-95.339 -157.44,-93.677 -156.723,-92.053C-156.211,-90.894 -155.495,-89.868 -154.726,-88.875C-154.394,-88.447 -153.947,-88.195 -153.4,-88.142C-153.141,-88.117 -152.882,-88.104 -152.624,-88.08C-151.843,-88.007 -151.239,-87.633 -150.788,-86.996C-150.457,-86.534 -150.18,-86.044 -150.02,-85.501C-149.718,-84.483 -149.182,-83.606 -148.465,-82.835C-147.792,-82.113 -147.455,-81.264 -147.269,-80.296C-146.968,-78.728 -146.665,-77.159 -146.105,-75.649C-145.661,-74.455 -145.561,-73.208 -145.738,-71.939C-145.845,-71.194 -146.087,-70.524 -146.556,-69.924C-146.982,-69.38 -147.358,-68.797 -147.754,-68.23C-148.226,-67.557 -148.691,-66.879 -149.168,-66.209C-150.388,-64.494 -151.962,-63.145 -153.679,-61.964C-154.927,-61.105 -156.259,-60.377 -157.612,-59.696C-158.192,-59.404 -158.757,-59.087 -159.336,-58.792C-159.991,-58.459 -160.641,-58.115 -161.312,-57.819C-162.657,-57.223 -164.012,-56.65 -165.327,-55.991C-166.914,-55.198 -168.51,-54.424 -170.115,-53.672C-171.411,-53.065 -172.67,-52.399 -173.902,-51.676C-174.424,-51.369 -174.941,-51.049 -175.483,-50.782C-176.919,-50.073 -178.324,-49.312 -179.72,-48.527C-180.588,-48.04 -181.474,-47.586 -182.347,-47.111C-183.945,-46.243 -185.462,-45.244 -187.002,-44.275C-187.658,-43.861 -188.332,-43.465 -188.964,-43.013C-189.917,-42.334 -190.874,-41.671 -191.912,-41.125C-192.726,-40.694 -193.397,-40.082 -193.914,-39.312C-194.915,-37.821 -195.594,-36.178 -195.954,-34.433C-196.278,-32.869 -196.508,-31.278 -196.665,-29.688C-196.89,-27.407 -197.149,-25.127 -197.205,-22.831C-197.223,-22.094 -197.307,-21.364 -197.512,-20.654C-197.695,-20.025 -197.784,-19.383 -197.801,-18.733C-197.821,-17.999 -197.825,-17.263 -197.831,-16.529C-197.838,-15.664 -197.845,-14.799 -197.84,-13.935C-197.835,-13.2 -197.825,-12.465 -197.797,-11.731C-197.766,-10.866 -197.699,-10.004 -197.678,-9.139C-197.646,-7.969 -197.549,-6.807 -197.316,-5.658C-197.066,-4.426 -196.938,-3.18 -196.898,-1.924C-196.862,-0.756 -196.813,0.411 -196.757,1.578C-196.723,2.27 -196.732,2.96 -196.798,3.65C-196.91,4.856 -197.005,6.064 -197.096,7.271C-197.136,7.788 -197.138,8.309 -197.188,8.824C-197.249,9.474 -197.254,10.121 -197.153,10.766C-196.966,11.97 -196.892,13.173 -197.105,14.382C-197.143,14.593 -197.145,14.813 -197.149,15.029C-197.165,15.814 -197.328,16.572 -197.557,17.32C-197.737,17.9 -197.888,18.485 -198.062,19.065C-198.313,19.9 -198.453,20.75 -198.454,21.623C-198.459,22.926 -198.668,24.204 -198.947,25.476C-199.142,26.375 -199.471,27.213 -199.933,28.004C-200.152,28.377 -200.383,28.742 -200.605,29.113C-200.917,29.633 -201.189,30.176 -201.377,30.754C-202.042,32.786 -203.171,34.589 -204.194,36.442C-204.279,36.592 -204.379,36.734 -204.484,36.873C-205.184,37.809 -205.814,38.791 -206.369,39.822C-206.491,40.049 -206.636,40.268 -206.793,40.473C-206.924,40.643 -207.075,40.804 -207.242,40.941C-207.671,41.294 -208.164,41.405 -208.7,41.245C-208.947,41.171 -209.19,41.069 -209.418,40.951C-210.151,40.575 -210.858,40.149 -211.48,39.606C-212.359,38.839 -213.216,38.047 -214.079,37.258C-214.633,36.751 -215.014,36.127 -215.263,35.422C-215.336,35.219 -215.404,35.012 -215.46,34.805C-215.953,33.012 -216.981,31.518 -218.111,30.086C-218.35,29.784 -218.648,29.518 -218.955,29.284C-219.852,28.6 -220.813,28.013 -221.846,27.558C-222.239,27.385 -222.653,27.235 -223.073,27.15C-224.599,26.842 -226.146,28.253 -225.662,29.921C-225.544,30.331 -225.357,30.733 -225.136,31.1C-224.89,31.502 -224.586,31.877 -224.276,32.235C-223.796,32.791 -223.313,33.35 -222.785,33.86C-221.755,34.857 -220.877,35.98 -219.978,37.089C-218.996,38.301 -218.455,39.695 -218.224,41.215C-218.126,41.861 -217.991,42.491 -217.766,43.101C-217.601,43.548 -217.468,44.007 -217.281,44.444C-216.884,45.365 -216.639,46.318 -216.472,47.307C-216.328,48.17 -216.253,49.017 -216.425,49.882C-216.5,50.262 -216.5,50.656 -216.558,51.041C-216.634,51.554 -216.682,52.078 -216.827,52.572C-217.13,53.609 -217.482,54.631 -217.821,55.658C-217.873,55.821 -217.95,55.983 -218.046,56.122C-218.882,57.296 -219.764,58.416 -221.227,58.863C-221.432,58.925 -221.631,59.018 -221.826,59.108C-223.368,59.815 -224.817,60.671 -226.098,61.789C-226.753,62.359 -227.434,62.887 -228.157,63.364C-228.409,63.531 -228.665,63.693 -228.908,63.873C-229.581,64.37 -230.117,64.99 -230.492,65.735C-230.989,66.717 -230.522,67.789 -229.467,68.125C-228.871,68.315 -228.267,68.318 -227.677,68.132C-227.31,68.015 -226.952,67.848 -226.611,67.665C-226.23,67.46 -225.877,67.209 -225.505,66.987C-224.533,66.409 -223.528,65.916 -222.386,65.761C-221.91,65.695 -221.471,65.51 -221.046,65.291C-220.238,64.877 -219.434,64.454 -218.619,64.05C-218.312,63.897 -217.993,63.739 -217.66,63.669C-216.862,63.502 -216.219,63.81 -215.728,64.443C-215.285,65.014 -215.272,65.708 -215.692,66.382C-215.828,66.601 -215.99,66.807 -216.162,67C-216.362,67.225 -216.58,67.438 -216.801,67.645C-217.844,68.636 -218.728,69.754 -219.427,71.01C-220.061,72.152 -220.821,73.194 -221.724,74.139C-221.96,74.387 -222.167,74.669 -222.363,74.954C-222.621,75.333 -222.683,75.762 -222.534,76.193C-222.422,76.518 -222.282,76.84 -222.103,77.133C-221.682,77.822 -220.992,78.061 -220.235,78.148C-219.576,78.223 -219.052,77.931 -218.641,77.447C-218.306,77.051 -218.009,76.624 -217.697,76.21C-216.912,75.168 -216.042,74.208 -214.956,73.471C-214.225,72.974 -213.65,72.342 -213.185,71.601C-212.909,71.161 -212.656,70.708 -212.371,70.274C-212.182,69.987 -211.975,69.702 -211.733,69.46C-211.18,68.902 -210.428,68.919 -209.893,69.472C-209.803,69.566 -209.715,69.662 -209.639,69.767C-208.94,70.718 -208.388,71.724 -208.243,72.933C-208.156,73.666 -208.029,74.387 -208.18,75.123C-208.197,75.207 -208.204,75.294 -208.212,75.38C-208.276,76.011 -208.099,76.579 -207.754,77.1C-207.445,77.569 -207.001,77.821 -206.441,77.793C-206.056,77.773 -205.65,77.745 -205.296,77.608C-203.569,76.946 -203.838,77.435 -203.308,75.601C-203.247,75.393 -203.182,75.188 -203.121,74.98C-202.781,73.819 -202.437,72.659 -202.107,71.494C-202.012,71.156 -201.882,70.842 -201.665,70.565C-201.523,70.383 -201.34,70.289 -201.111,70.278C-200.847,70.264 -200.593,70.295 -200.361,70.432C-199.989,70.652 -199.608,70.858 -199.244,71.091C-198.691,71.448 -198.135,71.749 -197.438,71.703C-197.244,71.69 -197.023,71.807 -196.844,71.915C-196.587,72.071 -196.357,72.272 -196.117,72.457C-195.465,72.962 -195.154,73.188 -194.76,73.274C-194.437,73.343 -194.061,73.319 -193.388,73.26C-193.133,73.238 -192.88,73.173 -192.627,73.114C-192.235,73.022 -191.85,73.058 -191.48,73.203C-191.159,73.329 -190.847,73.482 -190.527,73.613C-190.488,73.629 -190.449,73.649 -190.409,73.665C-190.129,73.771 -189.839,73.874 -189.542,73.914C-188.768,74.019 -188.114,73.27 -188.284,72.504C-188.379,72.071 -188.588,71.694 -188.859,71.354C-188.925,71.269 -188.994,71.188 -189.062,71.106C-189.217,70.923 -189.372,70.742 -189.52,70.553C-189.889,70.085 -190.008,69.549 -189.928,68.965C-189.854,68.447 -189.707,67.951 -189.492,67.475C-189.254,66.949 -188.889,66.527 -188.387,66.236C-188.088,66.063 -187.776,65.913 -187.466,65.76C-186.885,65.474 -186.301,65.187 -185.715,64.91C-185.183,64.66 -184.706,64.351 -184.254,64.013C-183.474,63.429 -182.8,62.726 -182.27,61.858C-181.908,61.266 -181.485,60.718 -181.002,60.218C-180.373,59.564 -179.769,58.88 -179.113,58.254C-178.048,57.237 -177.17,56.073 -176.32,54.887C-176.087,54.563 -175.858,54.236 -175.625,53.912C-175.069,53.131 -174.671,52.271 -174.413,51.343C-174.181,50.509 -173.892,49.692 -173.655,48.861C-173.576,48.581 -173.528,48.293 -173.47,48.009C-173.435,47.827 -173.382,47.65 -173.355,47.469C-173.273,46.912 -173.137,46.37 -173,45.824C-172.635,44.357 -172.276,42.886 -171.984,41.404C-171.807,40.508 -171.606,39.625 -171.279,38.777C-170.767,37.444 -170.243,36.116 -169.546,34.864C-169.018,33.915 -168.603,32.918 -168.34,31.862C-168.151,31.107 -167.999,30.343 -167.83,29.583C-167.727,29.119 -167.648,28.647 -167.509,28.193C-167.213,27.233 -167.077,26.254 -167.061,25.253C-167.056,24.864 -167.034,24.474 -166.986,24.089C-166.96,23.88 -166.877,23.672 -166.79,23.477C-166.622,23.112 -166.104,23.035 -165.791,23.303C-165.518,23.535 -165.327,23.823 -165.205,24.147C-164.916,24.915 -164.596,25.678 -164.389,26.469C-164.158,27.355 -163.859,28.204 -163.43,29.012C-162.695,30.399 -162.327,31.918 -161.879,33.407C-161.817,33.613 -161.79,33.832 -161.769,34.046C-161.67,35.086 -161.4,36.094 -161.087,37.081C-160.864,37.78 -160.696,38.488 -160.575,39.205C-160.531,39.465 -160.472,39.72 -160.449,39.985C-160.432,40.199 -160.384,40.414 -160.326,40.622C-160.197,41.096 -160.106,41.575 -160.031,42.057C-159.883,42.984 -159.809,43.92 -159.771,44.859C-159.722,46.072 -159.62,47.277 -159.436,48.475C-159.311,49.29 -159.234,50.107 -159.3,50.932C-159.348,51.589 -159.242,52.221 -159.057,52.851C-158.888,53.432 -158.736,54.02 -158.623,54.614C-158.528,55.123 -158.461,55.642 -158.452,56.157C-158.406,58.107 -158.658,60.043 -158.751,61.984C-158.756,62.114 -158.779,62.244 -158.811,62.369C-159.068,63.344 -159.084,64.336 -159.057,65.333C-159.03,66.331 -159.102,67.325 -159.307,68.301C-159.458,69.028 -159.49,69.754 -159.47,70.494C-159.42,72.226 -159.525,73.952 -159.752,75.671C-159.86,76.485 -159.94,77.304 -159.996,78.122C-160.121,79.895 -160.271,81.659 -160.687,83.392C-160.857,84.102 -160.951,84.821 -160.933,85.567C-160.905,86.78 -161.091,87.982 -161.341,89.17C-161.378,89.338 -161.42,89.508 -161.485,89.668C-161.927,90.766 -162.089,91.919 -162.172,93.088C-162.233,93.953 -162.337,94.81 -162.582,95.646C-162.755,96.232 -162.783,96.828 -162.74,97.444C-162.654,98.654 -162.7,99.867 -162.928,101.063C-163.032,101.619 -163.078,102.175 -163.07,102.74C-163.063,103.129 -163.075,103.517 -163.075,103.907C-163.078,104.732 -163.136,105.549 -163.37,106.347C-163.493,106.765 -163.512,107.195 -163.505,107.631C-163.488,109.021 -163.638,110.393 -164.007,111.738C-164.11,112.112 -164.173,112.497 -164.229,112.882C-164.365,113.826 -164.559,114.754 -164.862,115.661C-165.026,116.151 -165.133,116.66 -165.242,117.168C-165.447,118.141 -165.563,119.135 -165.903,120.075C-166.244,121.017 -166.411,121.993 -166.528,122.985C-166.604,123.626 -166.702,124.276 -166.887,124.893C-167.117,125.645 -167.247,126.404 -167.302,127.182C-167.447,129.215 -167.734,131.227 -168.104,133.227C-168.285,134.207 -168.427,135.189 -168.504,136.18C-168.567,137.003 -168.662,137.814 -168.943,138.597C-169.044,138.878 -169.079,139.187 -169.12,139.486C-169.333,141.076 -169.866,142.596 -170.108,144.18C-170.141,144.39 -170.22,144.599 -170.302,144.798C-170.638,145.616 -170.657,146.485 -170.717,147.348C-170.747,147.769 -170.568,148.099 -170.196,148.319C-169.076,148.985 -167.917,149.556 -166.633,149.843C-166.084,149.965 -165.536,150.101 -165.006,150.278C-164.027,150.601 -163.532,151.275 -163.499,152.314C-163.488,152.7 -163.545,153.089 -163.578,153.476C-163.706,155.028 -163.859,156.578 -163.954,158.132C-164.01,159 -164.104,159.853 -164.315,160.696C-164.566,161.705 -164.742,162.723 -164.742,163.772C-164.743,164.55 -164.818,165.338 -165.102,166.069C-165.438,166.931 -165.567,167.82 -165.594,168.734C-165.602,168.997 -165.619,169.259 -165.651,169.521C-165.688,169.817 -165.747,170.11 -165.854,170.393C-166.088,171.012 -166.162,171.65 -166.194,172.301C-166.234,173.082 -166.365,173.843 -166.65,174.581C-166.706,174.728 -166.75,174.882 -166.79,175.037C-166.005,175.346 -165.229,175.676 -164.439,175.969C-153.761,179.938 -142.613,182.609 -131.271,183.902C-129.338,184.122 -127.399,184.299 -125.458,184.439C-125.158,184.461 -124.858,184.469 -124.559,184.489C-124.536,184.388 -124.506,184.289 -124.486,184.188C-124.357,183.509 -124.194,182.836 -124.042,182.161C-124.003,181.992 -123.979,181.811 -123.898,181.664C-123.585,181.088 -123.403,180.471 -123.259,179.837C-123.099,179.565 -122.988,179.274 -122.887,178.979C-122.709,178.458 -122.571,177.92 -122.328,177.423C-122.251,177.269 -122.182,177.104 -122.153,176.936C-122.024,176.25 -121.746,175.613 -121.493,174.971C-121.145,174.089 -120.753,173.224 -120.379,172.351C-120.328,172.233 -120.261,172.117 -120.222,171.995C-119.708,170.389 -119.049,168.842 -118.368,167.302C-118.212,166.95 -118.16,166.552 -118.024,166.189C-117.566,164.978 -117.091,163.773 -116.626,162.565C-116.486,162.202 -116.363,161.835 -116.234,161.468C-116.177,161.305 -116.151,161.129 -116.071,160.977C-115.619,160.086 -115.366,159.119 -114.993,158.2C-114.684,157.441 -114.287,156.72 -113.928,155.984C-113.832,155.79 -113.711,155.606 -113.643,155.404C-113.289,154.382 -112.933,153.362 -112.609,152.332C-112.028,150.469 -111.285,148.676 -110.382,146.948C-110.204,146.599 -110.015,146.264 -109.941,145.875C-109.93,145.833 -109.922,145.789 -109.902,145.751C-109.129,144.201 -108.611,142.549 -107.95,140.952C-107.917,140.873 -107.868,140.802 -107.821,140.727C-107.621,140.393 -107.138,140.277 -106.795,140.493C-106.65,140.584 -106.521,140.703 -106.409,140.83C-106.324,140.925 -106.25,141.046 -106.219,141.168C-105.973,142.221 -105.438,143.18 -105.224,144.246C-105.172,144.497 -105.073,144.74 -104.999,144.987C-104.884,145.358 -104.769,145.729 -104.654,146.099C-104.566,146.389 -104.5,146.688 -104.382,146.963C-104.16,147.485 -104.023,148.023 -103.93,148.582C-103.867,148.961 -103.749,149.342 -103.587,149.69C-103.09,150.748 -102.742,151.863 -102.276,152.933C-101.862,153.882 -101.555,154.876 -101.212,155.853C-100.998,156.465 -100.776,157.068 -100.483,157.651C-100.093,158.421 -99.794,159.237 -99.493,160.047C-99.172,160.901 -98.736,161.697 -98.308,162.496C-97.444,164.096 -96.66,165.728 -95.98,167.417C-95.549,168.5 -95.017,169.543 -94.543,170.609C-94.384,170.961 -94.252,171.327 -94.115,171.69C-93.613,173.023 -93.177,174.38 -92.634,175.7C-92.398,176.277 -92.141,176.844 -91.88,177.408C-91.65,177.9 -91.419,178.391 -91.197,178.887C-90.896,179.557 -90.627,180.239 -90.391,180.937C-90.226,181.427 -90.007,181.898 -89.782,182.369C-87.989,182.023 -86.198,181.637 -84.413,181.218C-81.051,180.427 -77.705,179.511 -74.387,178.453C-67.15,176.143 -60.16,173.197 -53.384,169.777C-53.326,169.749 -53.274,169.703 -53.219,169.662C-53.162,169.644 -53.107,169.634 -53.044,169.6C-52.534,169.336 -52.04,169.05 -51.536,168.78C-49.852,167.877 -48.201,166.928 -46.564,165.961C-46.761,165.016 -46.879,164.055 -46.879,163.083C-46.877,162.646 -46.934,162.222 -47.068,161.807C-47.074,161.789 -47.074,161.773 -47.08,161.757C-47.269,161.151 -47.354,160.526 -47.367,159.89C-47.381,159.328 -47.395,158.761 -47.573,158.22C-47.888,157.267 -47.982,156.276 -48.086,155.287C-48.138,154.813 -48.196,154.344 -48.335,153.885C-48.538,153.219 -48.626,152.534 -48.645,151.838C-48.662,151.276 -48.706,150.715 -48.708,150.153C-48.714,149.586 -48.777,149.031 -48.95,148.491C-49.136,147.908 -49.208,147.307 -49.227,146.7C-49.251,145.923 -49.29,145.144 -49.281,144.367C-49.276,143.968 -49.317,143.593 -49.476,143.23C-49.69,142.745 -49.759,142.234 -49.756,141.709C-49.753,141.449 -49.761,141.189 -49.759,140.931C-49.748,140.232 -49.849,139.555 -50.093,138.894C-50.214,138.574 -50.293,138.231 -50.345,137.891C-50.496,136.903 -50.485,135.909 -50.411,134.913C-50.373,134.412 -50.184,133.992 -49.772,133.691C-48.728,132.922 -47.724,132.09 -46.589,131.459C-45.862,131.058 -45.204,130.575 -44.568,130.055C-44.2,129.756 -43.813,129.476 -43.435,129.188C-42.78,128.688 -42.168,128.139 -41.625,127.523C-41.291,127.145 -41.145,126.691 -41.263,126.195C-41.392,125.651 -41.559,125.113 -41.713,124.574C-41.833,124.16 -41.968,123.75 -42.089,123.334C-42.212,122.92 -42.322,122.503 -42.44,122.087C-42.662,121.297 -42.933,120.52 -43.172,119.736C-43.484,118.701 -43.909,117.708 -44.225,116.675C-44.502,115.766 -44.831,114.872 -45.067,113.952C-45.204,113.406 -45.374,112.881 -45.566,112.351C-45.829,111.623 -46.111,110.89 -46.306,110.142C-46.605,108.97 -47.118,107.866 -47.37,106.679C-47.499,106.09 -47.664,105.501 -47.886,104.941C-48.281,103.938 -48.363,102.832 -48.892,101.875C-48.933,101.801 -48.939,101.707 -48.952,101.623C-49.172,100.385 -49.493,99.179 -49.964,98.012C-50.06,97.774 -50.099,97.512 -50.17,97.262C-50.23,97.056 -50.263,96.827 -50.376,96.651C-50.743,96.083 -50.801,95.434 -50.913,94.797C-51.037,94.116 -51.489,93.532 -51.505,92.817C-51.508,92.775 -51.508,92.73 -51.519,92.688C-51.725,91.806 -51.92,90.916 -52.284,90.085C-52.515,89.564 -52.682,89.033 -52.772,88.479C-52.879,87.838 -52.953,87.194 -53.052,86.552C-53.099,86.255 -53.126,85.945 -53.233,85.668C-53.51,84.938 -53.675,84.181 -53.839,83.423C-54.22,81.689 -54.741,79.994 -55.293,78.309C-55.737,76.953 -56.206,75.606 -56.45,74.193C-56.617,73.212 -56.837,72.241 -57.209,71.311C-57.289,71.11 -57.325,70.894 -57.385,70.687C-57.689,69.604 -57.991,68.52 -58.306,67.441C-58.668,66.195 -59.019,64.947 -59.244,63.666C-59.313,63.285 -59.431,62.911 -59.551,62.543C-59.795,61.803 -60.072,61.074 -60.306,60.332C-60.717,59.008 -61.224,57.719 -61.803,56.462C-62.37,55.235 -62.735,53.943 -62.996,52.631C-63.226,51.48 -63.508,50.353 -63.906,49.254C-64.057,48.835 -64.172,48.409 -64.268,47.979C-64.38,47.484 -64.463,46.982 -64.512,46.471C-64.542,46.171 -64.567,45.868 -64.583,45.567C-64.622,44.872 -64.732,44.191 -64.967,43.532C-65.074,43.234 -65.137,42.93 -65.203,42.624C-65.31,42.128 -65.387,41.628 -65.42,41.117C-65.453,40.557 -65.51,39.996 -65.606,39.443C-65.749,38.631 -65.839,37.816 -65.872,36.994C-65.908,36.171 -66.007,35.357 -66.204,34.555C-66.36,33.922 -66.434,33.277 -66.445,32.627C-66.47,31.199 -66.492,29.771 -66.497,28.345C-66.5,27.956 -66.473,27.566 -66.424,27.181C-66.396,26.971 -66.319,26.762 -66.229,26.569C-66.026,26.119 -65.403,25.992 -65.017,26.316C-64.885,26.426 -64.756,26.549 -64.666,26.691C-64.523,26.908 -64.397,27.139 -64.298,27.376C-63.876,28.383 -63.3,29.291 -62.598,30.125C-62.124,30.688 -61.66,31.26 -61.208,31.837C-60.352,32.923 -59.477,33.999 -58.663,35.117C-58.076,35.925 -57.481,36.72 -56.751,37.401C-55.929,38.169 -55.098,38.924 -54.242,39.654C-53.919,39.933 -53.524,40.129 -53.154,40.351C-52.674,40.642 -52.18,40.911 -51.703,41.207C-50.343,42.05 -49.029,42.972 -47.565,43.633C-47.291,43.758 -47.033,43.924 -46.77,44.07C-46.539,44.194 -46.306,44.307 -46.081,44.438C-45.604,44.719 -45.119,44.798 -44.598,44.563C-44.439,44.492 -44.269,44.456 -44.104,44.397C-41.995,43.624 -39.856,42.929 -37.78,42.057C-36.933,41.702 -36.031,41.581 -35.142,41.42C-34.854,41.37 -34.536,41.418 -34.243,41.471C-33.689,41.574 -33.146,41.711 -32.597,41.836C-32.044,41.963 -31.492,41.996 -30.922,41.951C-29.301,41.824 -29.702,41.692 -28.555,42.812C-28.372,42.993 -28.196,43.187 -28.004,43.361C-27.332,43.972 -26.66,44.584 -25.975,45.179C-25.783,45.345 -25.553,45.485 -25.319,45.583C-24.76,45.814 -24.184,45.999 -23.625,46.23C-22.904,46.525 -22.273,46.388 -21.694,45.9C-21.138,45.43 -20.976,44.819 -21.28,44.155C-21.458,43.762 -21.708,43.405 -21.903,43.017C-22.073,42.67 -22.251,42.316 -22.35,41.946C-22.539,41.25 -22.062,40.65 -21.335,40.595C-20.792,40.555 -20.312,40.721 -19.876,41.029C-19.341,41.405 -18.853,41.845 -18.466,42.365C-17.57,43.577 -16.426,44.455 -15.08,45.121C-14.23,45.541 -13.423,46.067 -12.776,46.78C-12.176,47.44 -11.43,47.857 -10.626,48.198C-9.845,48.53 -9.359,48.43 -8.756,47.815C-8.666,47.724 -8.581,47.625 -8.501,47.523C-8.032,46.923 -7.964,46.237 -8.367,45.591C-8.572,45.265 -8.83,44.961 -9.113,44.699C-10.223,43.667 -11.213,42.521 -12.242,41.411C-12.891,40.709 -13.569,40.052 -14.356,39.504C-14.745,39.232 -15.14,38.963 -15.505,38.66C-15.768,38.44 -16.018,38.189 -16.212,37.909C-16.659,37.264 -16.5,36.418 -15.872,35.946C-15.36,35.56 -14.778,35.433 -14.153,35.545C-13.859,35.598 -13.566,35.698 -13.289,35.816C-12.019,36.365 -10.755,36.924 -9.491,37.485C-8.896,37.749 -8.295,37.996 -7.64,38.061C-6.891,38.137 -6.222,38.43 -5.597,38.836C-5.345,39 -5.092,39.175 -4.832,39.325C-4.344,39.604 -3.853,39.881 -3.354,40.137C-2.548,40.555 -1.684,40.561 -0.82,40.386C0.126,40.193 0.551,39.153 0,38.371" style="fill:rgb(185,154,72);fill-rule:nonzero;"/>
            </g>
        </g>
    </g>
</svg>
